{
    "asset" : {
        "generator" : "Khronos glTF Blender I/O v3.4.50",
        "version" : "2.0"
    },
    "extensionsUsed" : [
        "KHR_materials_specular",
        "KHR_materials_ior"
    ],
    "scene" : 0,
    "scenes" : [
        {
            "name" : "Scene",
            "nodes" : [
                0
            ]
        }
    ],
    "nodes" : [
        {
            "mesh" : 0,
            "name" : "Annanerry a3"
        }
    ],
    "materials" : [
        {
            "doubleSided" : true,
            "extensions" : {
                "KHR_materials_specular" : {
                    "specularColorFactor" : [
                        0,
                        0,
                        0
                    ]
                },
                "KHR_materials_ior" : {
                    "ior" : 1.4500000476837158
                }
            },
            "name" : "material_0",
            "pbrMetallicRoughness" : {
                "baseColorFactor" : [
                    0.800000011920929,
                    0.800000011920929,
                    0.800000011920929,
                    1
                ],
                "metallicFactor" : 0
            }
        },
        {
            "doubleSided" : true,
            "extensions" : {
                "KHR_materials_specular" : {
                    "specularColorFactor" : [
                        0,
                        0,
                        0
                    ]
                },
                "KHR_materials_ior" : {
                    "ior" : 1.4500000476837158
                }
            },
            "name" : "material_1",
            "pbrMetallicRoughness" : {
                "baseColorFactor" : [
                    0.800000011920929,
                    0.800000011920929,
                    0.800000011920929,
                    1
                ],
                "metallicFactor" : 0
            }
        },
        {
            "doubleSided" : true,
            "extensions" : {
                "KHR_materials_specular" : {
                    "specularColorFactor" : [
                        0,
                        0,
                        0
                    ]
                },
                "KHR_materials_ior" : {
                    "ior" : 1.4500000476837158
                }
            },
            "name" : "material_2",
            "pbrMetallicRoughness" : {
                "baseColorFactor" : [
                    0.800000011920929,
                    0.800000011920929,
                    0.800000011920929,
                    1
                ],
                "metallicFactor" : 0
            }
        }
    ],
    "meshes" : [
        {
            "name" : "Annanerry a3",
            "primitives" : [
                {
                    "attributes" : {
                        "POSITION" : 0,
                        "TEXCOORD_0" : 1,
                        "NORMAL" : 2
                    },
                    "indices" : 3,
                    "material" : 0
                },
                {
                    "attributes" : {
                        "POSITION" : 4,
                        "TEXCOORD_0" : 5,
                        "NORMAL" : 6
                    },
                    "indices" : 7,
                    "material" : 1
                },
                {
                    "attributes" : {
                        "POSITION" : 8,
                        "TEXCOORD_0" : 9,
                        "NORMAL" : 10
                    },
                    "indices" : 11,
                    "material" : 2
                }
            ]
        }
    ],
    "accessors" : [
        {
            "bufferView" : 0,
            "componentType" : 5126,
            "count" : 6220,
            "max" : [
                160.4912109375,
                14.901955604553223,
                29.426931381225586
            ],
            "min" : [
                -171.34878540039062,
                -16.444644927978516,
                -28.964468002319336
            ],
            "type" : "VEC3"
        },
        {
            "bufferView" : 1,
            "componentType" : 5126,
            "count" : 6220,
            "type" : "VEC2"
        },
        {
            "bufferView" : 2,
            "componentType" : 5126,
            "count" : 6220,
            "type" : "VEC3"
        },
        {
            "bufferView" : 3,
            "componentType" : 5123,
            "count" : 6222,
            "type" : "SCALAR"
        },
        {
            "bufferView" : 4,
            "componentType" : 5126,
            "count" : 41438,
            "max" : [
                114.70531463623047,
                23.148151397705078,
                34.859832763671875
            ],
            "min" : [
                -154.63418579101562,
                -11.805047035217285,
                -39.765472412109375
            ],
            "type" : "VEC3"
        },
        {
            "bufferView" : 5,
            "componentType" : 5126,
            "count" : 41438,
            "type" : "VEC2"
        },
        {
            "bufferView" : 6,
            "componentType" : 5126,
            "count" : 41438,
            "type" : "VEC3"
        },
        {
            "bufferView" : 7,
            "componentType" : 5123,
            "count" : 41520,
            "type" : "SCALAR"
        },
        {
            "bufferView" : 8,
            "componentType" : 5126,
            "count" : 39672,
            "max" : [
                111.10161590576172,
                14.255255699157715,
                33.52113342285156
            ],
            "min" : [
                -151.12738037109375,
                7.865152359008789,
                -33.93866729736328
            ],
            "type" : "VEC3"
        },
        {
            "bufferView" : 9,
            "componentType" : 5126,
            "count" : 39672,
            "type" : "VEC2"
        },
        {
            "bufferView" : 10,
            "componentType" : 5126,
            "count" : 39672,
            "type" : "VEC3"
        },
        {
            "bufferView" : 11,
            "componentType" : 5123,
            "count" : 39672,
            "type" : "SCALAR"
        }
    ],
    "bufferViews" : [
        {
            "buffer" : 0,
            "byteLength" : 74640,
            "byteOffset" : 0,
            "target" : 34962
        },
        {
            "buffer" : 0,
            "byteLength" : 49760,
            "byteOffset" : 74640,
            "target" : 34962
        },
        {
            "buffer" : 0,
            "byteLength" : 74640,
            "byteOffset" : 124400,
            "target" : 34962
        },
        {
            "buffer" : 0,
            "byteLength" : 12444,
            "byteOffset" : 199040,
            "target" : 34963
        },
        {
            "buffer" : 0,
            "byteLength" : 497256,
            "byteOffset" : 211484,
            "target" : 34962
        },
        {
            "buffer" : 0,
            "byteLength" : 331504,
            "byteOffset" : 708740,
            "target" : 34962
        },
        {
            "buffer" : 0,
            "byteLength" : 497256,
            "byteOffset" : 1040244,
            "target" : 34962
        },
        {
            "buffer" : 0,
            "byteLength" : 83040,
            "byteOffset" : 1537500,
            "target" : 34963
        },
        {
            "buffer" : 0,
            "byteLength" : 476064,
            "byteOffset" : 1620540,
            "target" : 34962
        },
        {
            "buffer" : 0,
            "byteLength" : 317376,
            "byteOffset" : 2096604,
            "target" : 34962
        },
        {
            "buffer" : 0,
            "byteLength" : 476064,
            "byteOffset" : 2413980,
            "target" : 34962
        },
        {
            "buffer" : 0,
            "byteLength" : 79344,
            "byteOffset" : 2890044,
            "target" : 34963
        }
    ],
    "buffers" : [
        {
            "byteLength" : 2969388,
            "uri" : "data:application/octet-stream;base64,"
        }
    ]
}
